<svg xmlns="http://www.w3.org/2000/svg" viewBox="0 0 512 512" width="512" height="512">
  <defs>
    <linearGradient id="bg" x1="0" y1="0" x2="0" y2="1">
      <stop offset="0" stop-color="#3b82f6"/>
      <stop offset="1" stop-color="#1e50c0"/>
    </linearGradient>
  </defs>
  <rect width="512" height="512" rx="112" fill="url(#bg)"/>

  <!-- building -->
  <rect x="136" y="118" width="240" height="300" rx="18" fill="#ffffff"/>
  <!-- roof band -->
  <rect x="136" y="118" width="240" height="30" rx="14" fill="#eef2fb"/>

  <!-- windows (some colored to hint room-status board) -->
  <!-- row 1 -->
  <rect x="171" y="168" width="44" height="40" rx="7" fill="#2f8f4e"/>
  <rect x="234" y="168" width="44" height="40" rx="7" fill="#c9781a"/>
  <rect x="297" y="168" width="44" height="40" rx="7" fill="#cdd9ef"/>
  <!-- row 2 -->
  <rect x="171" y="222" width="44" height="40" rx="7" fill="#cdd9ef"/>
  <rect x="234" y="222" width="44" height="40" rx="7" fill="#d23b3b"/>
  <rect x="297" y="222" width="44" height="40" rx="7" fill="#cdd9ef"/>
  <!-- row 3 -->
  <rect x="171" y="276" width="44" height="40" rx="7" fill="#7c5cff"/>
  <rect x="234" y="276" width="44" height="40" rx="7" fill="#cdd9ef"/>
  <rect x="297" y="276" width="44" height="40" rx="7" fill="#2f8f4e"/>

  <!-- door -->
  <rect x="226" y="346" width="60" height="72" rx="10" fill="#1e50c0"/>
  <circle cx="272" cy="382" r="5" fill="#ffffff"/>
</svg>
